<mxfile host="app.diagrams.net" agent="Mozilla/5.0 (Windows NT 10.0; Win64; x64) AppleWebKit/537.36 (KHTML, like Gecko) Chrome/138.0.0.0 Safari/537.36" version="28.0.7">
  <diagram name="第 1 页" id="IEnbA_HzdJUhyhe0NKEz">
    <mxGraphModel dx="679" dy="354" grid="1" gridSize="10" guides="1" tooltips="1" connect="1" arrows="1" fold="1" page="1" pageScale="1" pageWidth="827" pageHeight="1169" math="0" shadow="0">
      <root>
        <mxCell id="0" />
        <mxCell id="1" parent="0" />
        <mxCell id="-Pg_w4xpZwifqLHNHiyE-50" value="" style="group" vertex="1" connectable="0" parent="1">
          <mxGeometry x="30" y="160" width="240" height="225" as="geometry" />
        </mxCell>
        <mxCell id="-Pg_w4xpZwifqLHNHiyE-15" value="FIFO&lt;div&gt;&lt;span style=&quot;background-color: transparent; color: light-dark(rgb(0, 0, 0), rgb(255, 255, 255));&quot;&gt;Depth=16&lt;/span&gt;&lt;/div&gt;" style="rounded=0;whiteSpace=wrap;html=1;" vertex="1" parent="-Pg_w4xpZwifqLHNHiyE-50">
          <mxGeometry x="80" y="55" width="80" height="120" as="geometry" />
        </mxCell>
        <mxCell id="-Pg_w4xpZwifqLHNHiyE-20" value="" style="endArrow=classic;html=1;rounded=0;entryX=0;entryY=0.75;entryDx=0;entryDy=0;" edge="1" parent="-Pg_w4xpZwifqLHNHiyE-50">
          <mxGeometry width="50" height="50" relative="1" as="geometry">
            <mxPoint x="80" y="155" as="sourcePoint" />
            <mxPoint y="155" as="targetPoint" />
          </mxGeometry>
        </mxCell>
        <mxCell id="-Pg_w4xpZwifqLHNHiyE-25" value="full" style="edgeLabel;html=1;align=center;verticalAlign=middle;resizable=0;points=[];" vertex="1" connectable="0" parent="-Pg_w4xpZwifqLHNHiyE-20">
          <mxGeometry x="0.11" y="1" relative="1" as="geometry">
            <mxPoint x="4" y="-11" as="offset" />
          </mxGeometry>
        </mxCell>
        <mxCell id="-Pg_w4xpZwifqLHNHiyE-21" value="" style="endArrow=classic;html=1;rounded=0;entryX=0;entryY=0.75;entryDx=0;entryDy=0;" edge="1" parent="-Pg_w4xpZwifqLHNHiyE-50">
          <mxGeometry width="50" height="50" relative="1" as="geometry">
            <mxPoint y="75" as="sourcePoint" />
            <mxPoint x="80" y="75" as="targetPoint" />
          </mxGeometry>
        </mxCell>
        <mxCell id="-Pg_w4xpZwifqLHNHiyE-23" value="write_en" style="edgeLabel;html=1;align=center;verticalAlign=middle;resizable=0;points=[];" vertex="1" connectable="0" parent="-Pg_w4xpZwifqLHNHiyE-21">
          <mxGeometry x="-0.04" y="1" relative="1" as="geometry">
            <mxPoint y="-9" as="offset" />
          </mxGeometry>
        </mxCell>
        <mxCell id="-Pg_w4xpZwifqLHNHiyE-22" value="" style="endArrow=classic;html=1;rounded=0;entryX=0;entryY=0.75;entryDx=0;entryDy=0;" edge="1" parent="-Pg_w4xpZwifqLHNHiyE-50">
          <mxGeometry width="50" height="50" relative="1" as="geometry">
            <mxPoint y="115" as="sourcePoint" />
            <mxPoint x="80" y="114.82999999999998" as="targetPoint" />
          </mxGeometry>
        </mxCell>
        <mxCell id="-Pg_w4xpZwifqLHNHiyE-24" value="write_data [7:0]" style="edgeLabel;html=1;align=center;verticalAlign=middle;resizable=0;points=[];" vertex="1" connectable="0" parent="-Pg_w4xpZwifqLHNHiyE-22">
          <mxGeometry x="-0.1221" y="1" relative="1" as="geometry">
            <mxPoint y="-9" as="offset" />
          </mxGeometry>
        </mxCell>
        <mxCell id="-Pg_w4xpZwifqLHNHiyE-26" value="" style="endArrow=classic;html=1;rounded=0;entryX=0;entryY=0.75;entryDx=0;entryDy=0;" edge="1" parent="-Pg_w4xpZwifqLHNHiyE-50">
          <mxGeometry width="50" height="50" relative="1" as="geometry">
            <mxPoint x="160" y="154.8" as="sourcePoint" />
            <mxPoint x="240" y="154.8" as="targetPoint" />
          </mxGeometry>
        </mxCell>
        <mxCell id="-Pg_w4xpZwifqLHNHiyE-27" value="empty" style="edgeLabel;html=1;align=center;verticalAlign=middle;resizable=0;points=[];" vertex="1" connectable="0" parent="-Pg_w4xpZwifqLHNHiyE-26">
          <mxGeometry x="0.11" y="1" relative="1" as="geometry">
            <mxPoint x="-4" y="-11" as="offset" />
          </mxGeometry>
        </mxCell>
        <mxCell id="-Pg_w4xpZwifqLHNHiyE-28" value="" style="endArrow=classic;html=1;rounded=0;entryX=0;entryY=0.75;entryDx=0;entryDy=0;" edge="1" parent="-Pg_w4xpZwifqLHNHiyE-50">
          <mxGeometry width="50" height="50" relative="1" as="geometry">
            <mxPoint x="240" y="74.80000000000001" as="sourcePoint" />
            <mxPoint x="160" y="74.80000000000001" as="targetPoint" />
          </mxGeometry>
        </mxCell>
        <mxCell id="-Pg_w4xpZwifqLHNHiyE-29" value="read_en" style="edgeLabel;html=1;align=center;verticalAlign=middle;resizable=0;points=[];" vertex="1" connectable="0" parent="-Pg_w4xpZwifqLHNHiyE-28">
          <mxGeometry x="-0.04" y="1" relative="1" as="geometry">
            <mxPoint y="-9" as="offset" />
          </mxGeometry>
        </mxCell>
        <mxCell id="-Pg_w4xpZwifqLHNHiyE-30" value="" style="endArrow=classic;html=1;rounded=0;entryX=0;entryY=0.75;entryDx=0;entryDy=0;" edge="1" parent="-Pg_w4xpZwifqLHNHiyE-50">
          <mxGeometry width="50" height="50" relative="1" as="geometry">
            <mxPoint x="160" y="114.80000000000001" as="sourcePoint" />
            <mxPoint x="240" y="114.63" as="targetPoint" />
          </mxGeometry>
        </mxCell>
        <mxCell id="-Pg_w4xpZwifqLHNHiyE-31" value="read_data [7:0]" style="edgeLabel;html=1;align=center;verticalAlign=middle;resizable=0;points=[];" vertex="1" connectable="0" parent="-Pg_w4xpZwifqLHNHiyE-30">
          <mxGeometry x="-0.1221" y="1" relative="1" as="geometry">
            <mxPoint x="5" y="-9" as="offset" />
          </mxGeometry>
        </mxCell>
        <mxCell id="-Pg_w4xpZwifqLHNHiyE-40" value="" style="endArrow=classic;html=1;rounded=0;entryX=0.5;entryY=1;entryDx=0;entryDy=0;" edge="1" parent="-Pg_w4xpZwifqLHNHiyE-50" target="-Pg_w4xpZwifqLHNHiyE-15">
          <mxGeometry width="50" height="50" relative="1" as="geometry">
            <mxPoint x="120" y="225" as="sourcePoint" />
            <mxPoint x="70" y="225" as="targetPoint" />
          </mxGeometry>
        </mxCell>
        <mxCell id="-Pg_w4xpZwifqLHNHiyE-41" value="clk" style="edgeLabel;html=1;align=center;verticalAlign=middle;resizable=0;points=[];" vertex="1" connectable="0" parent="-Pg_w4xpZwifqLHNHiyE-40">
          <mxGeometry x="0.11" y="1" relative="1" as="geometry">
            <mxPoint x="11" y="8" as="offset" />
          </mxGeometry>
        </mxCell>
        <mxCell id="-Pg_w4xpZwifqLHNHiyE-45" value="" style="ellipse;whiteSpace=wrap;html=1;aspect=fixed;" vertex="1" parent="-Pg_w4xpZwifqLHNHiyE-50">
          <mxGeometry x="117.5" y="50" width="5" height="5" as="geometry" />
        </mxCell>
        <mxCell id="-Pg_w4xpZwifqLHNHiyE-48" value="" style="endArrow=classic;html=1;rounded=0;entryX=0.5;entryY=1;entryDx=0;entryDy=0;" edge="1" parent="-Pg_w4xpZwifqLHNHiyE-50">
          <mxGeometry width="50" height="50" relative="1" as="geometry">
            <mxPoint x="119.91999999999999" as="sourcePoint" />
            <mxPoint x="119.91999999999999" y="50" as="targetPoint" />
          </mxGeometry>
        </mxCell>
        <mxCell id="-Pg_w4xpZwifqLHNHiyE-49" value="rst_n" style="edgeLabel;html=1;align=center;verticalAlign=middle;resizable=0;points=[];" vertex="1" connectable="0" parent="-Pg_w4xpZwifqLHNHiyE-48">
          <mxGeometry x="0.11" y="1" relative="1" as="geometry">
            <mxPoint x="19" y="-3" as="offset" />
          </mxGeometry>
        </mxCell>
      </root>
    </mxGraphModel>
  </diagram>
</mxfile>
